<svg width="60" height="60" viewBox="0 0 60 60" fill="none" xmlns="http://www.w3.org/2000/svg">
<path fill-rule="evenodd" clip-rule="evenodd" d="M30 0C13.4277 0 0 13.7669 0 30.7578C0 44.3445 8.59375 55.8787 20.5176 59.9437C22.0215 60.2241 22.5684 59.2829 22.5684 58.4619C22.5684 57.731 22.5391 55.7986 22.5293 53.2355C14.1797 55.0878 12.4219 49.1104 12.4219 49.1104C11.0547 45.556 9.0918 44.6049 9.0918 44.6049C6.36719 42.7025 9.29687 42.7426 9.29687 42.7426C12.3047 42.9628 13.8867 45.9065 13.8867 45.9065C16.5625 50.6122 20.9082 49.2506 22.6172 48.4696C22.8906 46.4772 23.6719 45.1255 24.5215 44.3546C17.8613 43.5836 10.8594 40.9404 10.8594 29.1559C10.8594 25.7917 12.0313 23.0483 13.9453 20.8957C13.6426 20.1248 12.6074 16.9909 14.2383 12.7557C14.2383 12.7557 16.7578 11.9347 22.4902 15.9096C24.8828 15.2287 27.4512 14.8883 30 14.8783C32.5488 14.8883 35.1172 15.2287 37.5098 15.9096C43.2422 11.9347 45.752 12.7557 45.752 12.7557C47.3926 16.9909 46.3672 20.1248 46.0547 20.8957C47.9785 23.0483 49.1309 25.7917 49.1309 29.1559C49.1309 40.9704 42.1191 43.5636 35.4395 44.3345C36.5137 45.2757 37.4707 47.158 37.4707 50.0215C37.4707 54.1366 37.4414 57.4507 37.4414 58.4619C37.4414 59.2829 37.9785 60.2441 39.502 59.9437C51.416 55.8687 60 44.3445 60 30.7578C60 13.7669 46.5723 0 30 0Z" fill="url(#paint0_linear_1_8)"/>
<path fill-rule="evenodd" clip-rule="evenodd" d="M30 0C13.4277 0 0 13.7669 0 30.7578C0 44.3445 8.59375 55.8787 20.5176 59.9437C22.0215 60.2241 22.5684 59.2829 22.5684 58.4619C22.5684 57.731 22.5391 55.7986 22.5293 53.2355C14.1797 55.0878 12.4219 49.1104 12.4219 49.1104C11.0547 45.556 9.0918 44.6049 9.0918 44.6049C6.36719 42.7025 9.29687 42.7426 9.29687 42.7426C12.3047 42.9628 13.8867 45.9065 13.8867 45.9065C16.5625 50.6122 20.9082 49.2506 22.6172 48.4696C22.8906 46.4772 23.6719 45.1255 24.5215 44.3546C17.8613 43.5836 10.8594 40.9404 10.8594 29.1559C10.8594 25.7917 12.0313 23.0483 13.9453 20.8957C13.6426 20.1248 12.6074 16.9909 14.2383 12.7557C14.2383 12.7557 16.7578 11.9347 22.4902 15.9096C24.8828 15.2287 27.4512 14.8883 30 14.8783C32.5488 14.8883 35.1172 15.2287 37.5098 15.9096C43.2422 11.9347 45.752 12.7557 45.752 12.7557C47.3926 16.9909 46.3672 20.1248 46.0547 20.8957C47.9785 23.0483 49.1309 25.7917 49.1309 29.1559C49.1309 40.9704 42.1191 43.5636 35.4395 44.3345C36.5137 45.2757 37.4707 47.158 37.4707 50.0215C37.4707 54.1366 37.4414 57.4507 37.4414 58.4619C37.4414 59.2829 37.9785 60.2441 39.502 59.9437C51.416 55.8687 60 44.3445 60 30.7578C60 13.7669 46.5723 0 30 0Z" fill="url(#paint1_linear_1_8)" fill-opacity="0.6"/>
<defs>
<linearGradient id="paint0_linear_1_8" x1="15.4545" y1="40.0784" x2="86.6533" y2="90.5835" gradientUnits="userSpaceOnUse">
<stop stop-color="#625B94"/>
<stop offset="1" stop-color="#625B94" stop-opacity="0"/>
</linearGradient>
<linearGradient id="paint1_linear_1_8" x1="56.3636" y1="45.6707" x2="25.287" y2="34.9727" gradientUnits="userSpaceOnUse">
<stop stop-color="#5995EF"/>
<stop offset="1" stop-color="#23549F" stop-opacity="0"/>
</linearGradient>
</defs>
</svg>
