<svg width="60" height="60" viewBox="0 0 60 60" fill="none" xmlns="http://www.w3.org/2000/svg">
<path d="M16.6667 0C7.47396 0 0 7.47396 0 16.6667V43.3333C0 52.526 7.47396 60 16.6667 60H43.3333C52.526 60 60 52.526 60 43.3333V16.6667C60 7.47396 52.526 0 43.3333 0H16.6667ZM16.6667 6.66667H43.3333C48.8477 6.66667 53.3333 11.1523 53.3333 16.6667V43.3333C53.3333 48.8477 48.8477 53.3333 43.3333 53.3333H16.6667C11.1523 53.3333 6.66667 48.8477 6.66667 43.3333V16.6667C6.66667 11.1523 11.1523 6.66667 16.6667 6.66667ZM46.6667 10C44.8242 10 43.3333 11.4909 43.3333 13.3333C43.3333 15.1758 44.8242 16.6667 46.6667 16.6667C48.5091 16.6667 50 15.1758 50 13.3333C50 11.4909 48.5091 10 46.6667 10ZM30 13.3333C20.8073 13.3333 13.3333 20.8073 13.3333 30C13.3333 39.1927 20.8073 46.6667 30 46.6667C39.1927 46.6667 46.6667 39.1927 46.6667 30C46.6667 20.8073 39.1927 13.3333 30 13.3333ZM30 20C35.5143 20 40 24.4857 40 30C40 35.5143 35.5143 40 30 40C24.4857 40 20 35.5143 20 30C20 24.4857 24.4857 20 30 20Z" fill="url(#paint0_linear_1_3)"/>
<path d="M16.6667 0C7.47396 0 0 7.47396 0 16.6667V43.3333C0 52.526 7.47396 60 16.6667 60H43.3333C52.526 60 60 52.526 60 43.3333V16.6667C60 7.47396 52.526 0 43.3333 0H16.6667ZM16.6667 6.66667H43.3333C48.8477 6.66667 53.3333 11.1523 53.3333 16.6667V43.3333C53.3333 48.8477 48.8477 53.3333 43.3333 53.3333H16.6667C11.1523 53.3333 6.66667 48.8477 6.66667 43.3333V16.6667C6.66667 11.1523 11.1523 6.66667 16.6667 6.66667ZM46.6667 10C44.8242 10 43.3333 11.4909 43.3333 13.3333C43.3333 15.1758 44.8242 16.6667 46.6667 16.6667C48.5091 16.6667 50 15.1758 50 13.3333C50 11.4909 48.5091 10 46.6667 10ZM30 13.3333C20.8073 13.3333 13.3333 20.8073 13.3333 30C13.3333 39.1927 20.8073 46.6667 30 46.6667C39.1927 46.6667 46.6667 39.1927 46.6667 30C46.6667 20.8073 39.1927 13.3333 30 13.3333ZM30 20C35.5143 20 40 24.4857 40 30C40 35.5143 35.5143 40 30 40C24.4857 40 20 35.5143 20 30C20 24.4857 24.4857 20 30 20Z" fill="url(#paint1_linear_1_3)" fill-opacity="0.6"/>
<defs>
<linearGradient id="paint0_linear_1_3" x1="32.5" y1="35" x2="30" y2="60" gradientUnits="userSpaceOnUse">
<stop offset="0.569397" stop-color="#625B94"/>
<stop offset="1" stop-color="#625B94" stop-opacity="0"/>
</linearGradient>
<linearGradient id="paint1_linear_1_3" x1="58.3333" y1="60" x2="55.8333" y2="27.5" gradientUnits="userSpaceOnUse">
<stop stop-color="#5995EF"/>
<stop offset="1" stop-color="#5995EF" stop-opacity="0"/>
</linearGradient>
</defs>
</svg>
