<svg width="60" height="60" viewBox="0 0 60 60" fill="none" xmlns="http://www.w3.org/2000/svg">
<path d="M6.6315 14.2105H6.7095C10.8945 14.2105 13.5 11.0526 13.5 7.10526C13.422 3.07105 10.8945 0 6.789 0C2.6835 0 0 3.07105 0 7.10526C0 11.0526 2.604 14.2105 6.6315 14.2105ZM0 18.9474H13.5V60H0V18.9474ZM60 33.9474C60 25.6626 53.6205 18.9474 45.75 18.9474C41.1705 18.9474 37.107 21.2305 34.5 24.7642V18.9474H21V60H34.5V36.3158C34.5 32.8279 37.1865 30 40.5 30C43.8135 30 46.5 32.8279 46.5 36.3158V60H60C60 60 60 36.2447 60 33.9474Z" fill="url(#paint0_linear_1_6)" fill-opacity="0.6"/>
<path d="M6.6315 14.2105H6.7095C10.8945 14.2105 13.5 11.0526 13.5 7.10526C13.422 3.07105 10.8945 0 6.789 0C2.6835 0 0 3.07105 0 7.10526C0 11.0526 2.604 14.2105 6.6315 14.2105ZM0 18.9474H13.5V60H0V18.9474ZM60 33.9474C60 25.6626 53.6205 18.9474 45.75 18.9474C41.1705 18.9474 37.107 21.2305 34.5 24.7642V18.9474H21V60H34.5V36.3158C34.5 32.8279 37.1865 30 40.5 30C43.8135 30 46.5 32.8279 46.5 36.3158V60H60C60 60 60 36.2447 60 33.9474Z" fill="url(#paint1_linear_1_6)"/>
<defs>
<linearGradient id="paint0_linear_1_6" x1="39" y1="55.2632" x2="29.821" y2="59.6232" gradientUnits="userSpaceOnUse">
<stop stop-color="#5995EF"/>
<stop offset="1" stop-color="#5995EF" stop-opacity="0"/>
</linearGradient>
<linearGradient id="paint1_linear_1_6" x1="1.02276e-06" y1="45.7895" x2="91.838" y2="13.3426" gradientUnits="userSpaceOnUse">
<stop stop-color="#625B94"/>
<stop offset="1" stop-color="#625B94" stop-opacity="0"/>
</linearGradient>
</defs>
</svg>
