<svg width="60" height="50" viewBox="0 0 60 50" fill="none" xmlns="http://www.w3.org/2000/svg">
<path d="M6.92308 0C6.21094 0 5.54387 0.154194 4.90385 0.380344L11.6286 5.26316H48.3714L55.0962 0.380344C54.4561 0.154194 53.7891 0 53.0769 0H6.92308ZM2.56911 1.80921C1.00961 3.25863 0 5.43791 0 7.89474V42.1053C0 46.4535 3.10998 50 6.92308 50H53.0769C56.89 50 60 46.4535 60 42.1053V7.89474C60 5.43791 58.9904 3.25863 57.4309 1.80921L30 21.7105L2.56911 1.80921ZM6.92308 14.2475L30 31.0033L53.0769 14.2475V44.7368H6.92308V14.2475Z" fill="url(#paint0_linear_2_11)" fill-opacity="0.6"/>
<path d="M6.92308 0C6.21094 0 5.54387 0.154194 4.90385 0.380344L11.6286 5.26316H48.3714L55.0962 0.380344C54.4561 0.154194 53.7891 0 53.0769 0H6.92308ZM2.56911 1.80921C1.00961 3.25863 0 5.43791 0 7.89474V42.1053C0 46.4535 3.10998 50 6.92308 50H53.0769C56.89 50 60 46.4535 60 42.1053V7.89474C60 5.43791 58.9904 3.25863 57.4309 1.80921L30 21.7105L2.56911 1.80921ZM6.92308 14.2475L30 31.0033L53.0769 14.2475V44.7368H6.92308V14.2475Z" fill="url(#paint1_linear_2_11)"/>
<defs>
<linearGradient id="paint0_linear_2_11" x1="17.561" y1="19.2857" x2="-11.0746" y2="-7.11487" gradientUnits="userSpaceOnUse">
<stop stop-color="#5995EF"/>
<stop offset="1" stop-color="#5995EF" stop-opacity="0"/>
</linearGradient>
<linearGradient id="paint1_linear_2_11" x1="23.4146" y1="18.5714" x2="70.249" y2="51.0479" gradientUnits="userSpaceOnUse">
<stop stop-color="#625B94"/>
<stop offset="1" stop-color="#625B94" stop-opacity="0"/>
</linearGradient>
</defs>
</svg>
